<?xml version="1.0" encoding="UTF-8" standalone="no"?>
<!DOCTYPE svg PUBLIC "-//W3C//DTD SVG 1.1//EN"
 "http://www.w3.org/Graphics/SVG/1.1/DTD/svg11.dtd">
<!-- Generated by graphviz version 2.43.0 (0)
 -->
<!-- Title: %3 Pages: 1 -->
<svg width="220pt" height="243pt"
 viewBox="0.00 0.00 220.00 243.00" xmlns="http://www.w3.org/2000/svg" xmlns:xlink="http://www.w3.org/1999/xlink">
<g id="graph0" class="graph" transform="scale(1 1) rotate(0) translate(4 239)">
<title>%3</title>
<polygon fill="white" stroke="transparent" points="-4,4 -4,-239 216,-239 216,4 -4,4"/>
<g id="clust1" class="cluster">
<title>cluster_data</title>
<polygon fill="none" stroke="black" points="8,-8 8,-227 204,-227 204,-8 8,-8"/>
<text text-anchor="middle" x="180" y="-15.8" font-family="Times,serif" font-size="14.00">data</text>
</g>
<!-- z -->
<g id="node1" class="node">
<title>z</title>
<ellipse fill="white" stroke="black" cx="141" cy="-201" rx="27" ry="18"/>
<text text-anchor="middle" x="141" y="-197.3" font-family="Times,serif" font-size="14.00">z</text>
</g>
<!-- x_obs -->
<g id="node2" class="node">
<title>x_obs</title>
<ellipse fill="gray" stroke="black" cx="52" cy="-129" rx="36.29" ry="18"/>
<text text-anchor="middle" x="52" y="-125.3" font-family="Times,serif" font-size="14.00">x_obs</text>
</g>
<!-- z&#45;&gt;x_obs -->
<g id="edge1" class="edge">
<title>z&#45;&gt;x_obs</title>
<path fill="none" stroke="black" d="M124.26,-186.83C111.34,-176.68 93.23,-162.43 78.38,-150.74"/>
<polygon fill="black" stroke="black" points="80.53,-147.99 70.51,-144.56 76.2,-153.49 80.53,-147.99"/>
</g>
<!-- t_obs -->
<g id="node3" class="node">
<title>t_obs</title>
<ellipse fill="gray" stroke="black" cx="141" cy="-129" rx="35.19" ry="18"/>
<text text-anchor="middle" x="141" y="-125.3" font-family="Times,serif" font-size="14.00">t_obs</text>
</g>
<!-- z&#45;&gt;t_obs -->
<g id="edge2" class="edge">
<title>z&#45;&gt;t_obs</title>
<path fill="none" stroke="black" d="M141,-182.7C141,-174.98 141,-165.71 141,-157.11"/>
<polygon fill="black" stroke="black" points="144.5,-157.1 141,-147.1 137.5,-157.1 144.5,-157.1"/>
</g>
<!-- y_obs -->
<g id="node4" class="node">
<title>y_obs</title>
<ellipse fill="gray" stroke="black" cx="150" cy="-57" rx="36.29" ry="18"/>
<text text-anchor="middle" x="150" y="-53.3" font-family="Times,serif" font-size="14.00">y_obs</text>
</g>
<!-- z&#45;&gt;y_obs -->
<g id="edge3" class="edge">
<title>z&#45;&gt;y_obs</title>
<path fill="none" stroke="black" d="M157.3,-186.07C167.4,-176.3 179.48,-162.3 185,-147 190.43,-131.95 189.6,-126.32 185,-111 181.91,-100.7 176.09,-90.56 170.08,-81.95"/>
<polygon fill="black" stroke="black" points="172.87,-79.84 164.09,-73.9 167.25,-84.01 172.87,-79.84"/>
</g>
<!-- t_obs&#45;&gt;y_obs -->
<g id="edge4" class="edge">
<title>t_obs&#45;&gt;y_obs</title>
<path fill="none" stroke="black" d="M143.22,-110.7C144.22,-102.98 145.41,-93.71 146.51,-85.11"/>
<polygon fill="black" stroke="black" points="150,-85.47 147.8,-75.1 143.05,-84.58 150,-85.47"/>
</g>
</g>
</svg>
